# Exported from Figuro at https://www.figuro.io

mtllib newscene.mtl
g new model
v -59.834711043696686 256 11.051676645704674
v 71.3192573545991 256 11.051676645704674
v 71.3192573545991 0 11.051676645704674
v -59.834711043696686 0 11.051676645704674
v 71.3192573545991 256 -26.75482756784777
v 71.3192573545991 0 -26.75482756784777
v -59.834711043696686 256 -26.75482756784777
v -59.834711043696686 0 -26.75482756784777
v -15.694696669905582 332.38817858258 7.877066858322383
v 24.652628638708443 332.38817858258 7.877066858322383
v 24.652628638708443 265.50315504754263 7.877066858322383
v -15.694696669905582 265.50315504754263 7.877066858322383
v 24.652628638708443 332.38817858258 -25.112991808849607
v 24.652628638708443 265.50315504754263 -25.112991808849607
v -15.694696669905582 332.38817858258 -25.112991808849607
v -15.694696669905582 265.50315504754263 -25.112991808849607
v -59.11449981746331 420.57573343006896 44.52595168677994
v 71.23100441562022 420.57573343006896 44.52595168677994
v 71.23100441562022 347.42426656993126 44.52595168677994
v -59.11449981746331 347.42426656993126 44.52595168677994
v 71.23100441562022 420.57573343006896 -69.23636991707689
v 71.23100441562022 347.42426656993126 -69.23636991707689
v -59.11449981746331 420.57573343006896 -69.23636991707689
v -59.11449981746331 347.42426656993126 -69.23636991707689
# 24 vertices
vt -0.23372934001444018 2
vt 0.27859084904140274 2
vt 0.27859084904140274 1
vt -0.23372934001444018 1
vt -0.043170611897283884 2
vt 0.10451104518690535 2
vt 0.10451104518690535 1
vt -0.043170611897283884 1
vt -0.27859084904140274 2
vt 0.23372934001444018 2
vt 0.23372934001444018 1
vt -0.27859084904140274 1
vt -0.10451104518690535 2
vt 0.043170611897283884 2
vt 0.043170611897283884 1
vt -0.10451104518690535 1
vt -0.23372934001444018 1.0431706118972839
vt 0.27859084904140274 1.0431706118972839
vt 0.27859084904140274 0.8954889548130947
vt -0.23372934001444018 0.8954889548130947
vt -0.23372934001444018 1.1045110451869053
vt 0.27859084904140274 1.1045110451869053
vt 0.27859084904140274 0.9568293881027161
vt -0.23372934001444018 0.9568293881027161
vt -0.06130740886681868 2.298391322588203
vt 0.09629933061995485 2.298391322588203
vt 0.09629933061995485 2.037121699404463
vt -0.06130740886681868 2.037121699404463
vt -0.03076979241532181 2.298391322588203
vt 0.09809762425331878 2.298391322588203
vt 0.09809762425331878 2.037121699404463
vt -0.03076979241532181 2.037121699404463
vt -0.09629933061995485 2.298391322588203
vt 0.06130740886681868 2.298391322588203
vt 0.06130740886681868 2.037121699404463
vt -0.09629933061995485 2.037121699404463
vt -0.09809762425331878 2.298391322588203
vt 0.03076979241532181 2.298391322588203
vt 0.03076979241532181 2.037121699404463
vt -0.09809762425331878 2.037121699404463
vt -0.06130740886681868 1.0307697924153219
vt 0.09629933061995485 1.0307697924153219
vt 0.09629933061995485 0.9019023757466812
vt -0.06130740886681868 0.9019023757466812
vt -0.06130740886681868 1.0980976242533187
vt 0.09629933061995485 1.0980976242533187
vt 0.09629933061995485 0.9692302075846781
vt -0.06130740886681868 0.9692302075846781
vt -0.23091601491196606 2.642873958711207
vt 0.2782461109985165 2.642873958711207
vt 0.2782461109985165 2.3571260412887938
vt -0.23091601491196606 2.3571260412887938
vt -0.17392949877648414 2.642873958711207
vt 0.2704545699885816 2.642873958711207
vt 0.2704545699885816 2.3571260412887938
vt -0.17392949877648414 2.3571260412887938
vt -0.2782461109985165 2.642873958711207
vt 0.23091601491196606 2.642873958711207
vt 0.23091601491196606 2.3571260412887938
vt -0.2782461109985165 2.3571260412887938
vt -0.2704545699885816 2.642873958711207
vt 0.17392949877648414 2.642873958711207
vt 0.17392949877648414 2.3571260412887938
vt -0.2704545699885816 2.3571260412887938
vt -0.23091601491196606 1.1739294987764841
vt 0.2782461109985165 1.1739294987764841
vt 0.2782461109985165 0.7295454300114184
vt -0.23091601491196606 0.7295454300114184
vt -0.23091601491196606 1.2704545699885816
vt 0.2782461109985165 1.2704545699885816
vt 0.2782461109985165 0.8260705012235159
vt -0.23091601491196606 0.8260705012235159
# 72 uvs
vn -0.3333333333333333 0.3333333333333333 0.3333333333333333
vn 0.3333333333333333 0.3333333333333333 0.3333333333333333
vn 0.3333333333333333 -0.3333333333333333 0.3333333333333333
vn -0.3333333333333333 -0.3333333333333333 0.3333333333333333
vn 0.3333333333333333 0.3333333333333333 -0.3333333333333333
vn 0.3333333333333333 -0.3333333333333333 -0.3333333333333333
vn -0.3333333333333333 0.3333333333333333 -0.3333333333333333
vn -0.3333333333333333 -0.3333333333333333 -0.3333333333333333
vn -0.3333333333333333 0.3333333333333333 0.3333333333333333
vn 0.3333333333333333 0.3333333333333333 0.3333333333333333
vn 0.3333333333333333 -0.3333333333333333 0.3333333333333333
vn -0.3333333333333333 -0.3333333333333333 0.3333333333333333
vn 0.3333333333333333 0.3333333333333333 -0.3333333333333333
vn 0.3333333333333333 -0.3333333333333333 -0.3333333333333333
vn -0.3333333333333333 0.3333333333333333 -0.3333333333333333
vn -0.3333333333333333 -0.3333333333333333 -0.3333333333333333
vn -0.3333333333333333 0.3333333333333333 0.3333333333333333
vn 0.3333333333333333 0.3333333333333333 0.3333333333333333
vn 0.3333333333333333 -0.3333333333333333 0.3333333333333333
vn -0.3333333333333333 -0.3333333333333333 0.3333333333333333
vn 0.3333333333333333 0.3333333333333333 -0.3333333333333333
vn 0.3333333333333333 -0.3333333333333333 -0.3333333333333333
vn -0.3333333333333333 0.3333333333333333 -0.3333333333333333
vn -0.3333333333333333 -0.3333333333333333 -0.3333333333333333
# 24 normals
usemtl #ffefdb81
f 4/4/4 3/3/3 2/2/2 1/1/1 
f 3/8/3 6/7/6 5/6/5 2/5/2 
f 6/12/6 8/11/8 7/10/7 5/9/5 
f 8/16/8 4/15/4 1/14/1 7/13/7 
f 8/20/8 6/19/6 3/18/3 4/17/4 
f 1/24/1 2/23/2 5/22/5 7/21/7 
usemtl #ffb28a6c
f 12/28/12 11/27/11 10/26/10 9/25/9 
f 11/32/11 14/31/14 13/30/13 10/29/10 
f 14/36/14 16/35/16 15/34/15 13/33/13 
f 16/40/16 12/39/12 9/38/9 15/37/15 
f 16/44/16 14/43/14 11/42/11 12/41/12 
f 9/48/9 10/47/10 13/46/13 15/45/15 
usemtl #ffd4a5bc
f 20/52/20 19/51/19 18/50/18 17/49/17 
f 19/56/19 22/55/22 21/54/21 18/53/18 
f 22/60/22 24/59/24 23/58/23 21/57/21 
f 24/64/24 20/63/20 17/62/17 23/61/23 
f 24/68/24 22/67/22 19/66/19 20/65/20 
f 17/72/17 18/71/18 21/70/21 23/69/23 
# 18 polygons